#!OML:ASF I:\salsa\salsa 7_09\Patient 1\Session 1\dancerfemale.ASF
:FULLY-SPECIFIED
:DEGREES
1472
root -1.40289 15.7786 0.239655 -104.918 -85.7676 -261.572
lowerback 10.0977 7.31392 7.66469
upperback -3.04572 10.3449 -5.99334
thorax -6.39959 4.64835 -12.2156
lowerneck -5.20081 15.7883 3.11845
upperneck 19.682 20.185 5.43609
head 6.62071 10.3059 2.64701
rclavicle 3.79679e-014 -2.8625e-014
rhumerus -68.2104 7.6439 -89.6818
rradius 122.136
rwrist -50.8019
rhand 44.4327 377.463
rfingers 7.12502
rthumb 65.9517 11.9545
lclavicle 3.79679e-014 -2.8625e-014
lhumerus -41.0202 43.0568 51.6424
lradius 71.9286
lwrist -23.1604
lhand -47.5501 18.4146
lfingers 7.12502
lthumb -20.2361 -312.62
rfemur -3.54326 -0.915062 18.3857
rtibia 43.3288
rfoot -16.7525 5.60613
rtoes -30.5071
lfemur -26.7217 -0.0136062 -28.5932
ltibia 39.7486
lfoot -1.5514 2.18854
ltoes 11.1512
1473
root -1.24294 15.8471 0.191778 -74.4397 -86.2476 -290.688
lowerback 9.27131 7.66831 7.908
upperback -3.41469 10.7957 -6.24483
thorax -6.12618 4.8711 -12.5459
lowerneck -5.12283 15.3263 3.55702
upperneck 19.6034 19.4947 5.46625
head 6.63395 10.0063 2.54738
rclavicle 5.26779e-014 -2.54444e-014
rhumerus -68.416 6.35165 -89.3521
rradius 122.337
rwrist -50.7836
rhand 44.8574 377.56
rfingers 7.12502
rthumb 66.2779 12.6654
lclavicle 5.26779e-014 -2.54444e-014
lhumerus -41.6752 42.6349 53.3033
lradius 70.8093
lwrist -23.4225
lhand -48.1233 16.3986
lfingers 7.12502
lthumb -20.7868 -314.695
rfemur -3.2323 -1.10379 20.0246
rtibia 39.7425
rfoot -17.9031 2.00873
rtoes -33.2076
lfemur -28.4468 -1.12942 -27.7564
ltibia 39.138
lfoot -0.495145 0.848846
ltoes 7.48224
1474
root -1.06262 15.9108 0.135 -44.2054 -85.7108 -319.428
lowerback 8.54745 8.16119 8.0077
upperback -3.91229 11.4131 -6.55968
thorax -6.01237 5.16279 -12.8979
lowerneck -5.06557 14.764 4.53828
upperneck 19.5126 18.6381 5.2925
head 6.7228 9.6448 2.31291
rclavicle 7.73272e-014 5.08889e-014
rhumerus -68.7369 4.82815 -88.9821
rradius 122.725
rwrist -50.8345
rhand 44.6433 377.58
rfingers 7.12502
rthumb 66.1138 12.3734
lclavicle 7.73272e-014 5.08889e-014
lhumerus -42.6556 41.8738 54.0204
lradius 69.7389
lwrist -26.1043
lhand -45.0704 17.6513
lfingers 7.12502
lthumb -17.8514 -313.148
rfemur -3.57263 -1.91829 21.3693
rtibia 36.3422
rfoot -18.5267 -0.0353996
rtoes -29.4938
lfemur -30.4613 -2.57724 -26.5668
ltibia 38.7811
lfoot -0.0341355 -0.724404
ltoes 1.19042
1475
root -0.867394 15.9567 0.0714813 -21.1413 -84.6259 -341.026
lowerback 8.01484 8.16865 8.25613
upperback -4.36682 11.4347 -6.48462
thorax -6.16998 5.13385 -12.9074
lowerneck -5.39141 14.7235 4.34219
upperneck 19.4875 18.5329 5.64164
head 6.71477 9.61391 2.45611
rclavicle -1.18674e-013 6.36111e-015
rhumerus -68.8104 4.81064 -88.8022
rradius 123.139
rwrist -51.037
rhand 44.4252 377.779
rfingers 7.12502
rthumb 65.9459 12.2602
lclavicle -1.18674e-013 6.36111e-015
lhumerus -45.3036 42.5967 52.5159
lradius 69.0779
lwrist -31.3781
lhand -37.3199 18.2357
lfingers 7.12502
lthumb -10.3832 -312.041
rfemur -4.31746 -2.18127 23.106
rtibia 33.4158
rfoot -18.6377 -2.03665
rtoes -25.0608
lfemur -32.5838 -4.26788 -24.7243
ltibia 38.7965
lfoot -0.713334 -2.56653
ltoes -7.96873
1476
root -0.662754 15.9485 0.00579535 -10.5784 -82.9403 -350.361
lowerback 7.71284 7.78485 7.83336
upperback -4.60258 10.874 -6.13568
thorax -6.54791 4.83691 -12.2425
lowerneck -5.6168 15.0707 3.35055
upperneck 19.1632 19.0898 5.91179
head 6.51037 9.84655 2.68833
rclavicle 1.4074e-013 -4.92986e-014
rhumerus -68.4828 6.12676 -88.4971
rradius 123.547
rwrist -51.4139
rhand 44.6506 377.719
rfingers 7.12502
rthumb 66.1194 12.5234
lclavicle 1.4074e-013 -4.92986e-014
lhumerus -48.0542 43.3087 51.7576
lradius 67.9425
lwrist -31.5343
lhand -36.749 16.9532
lfingers 7.12502
lthumb -9.83249 -313.296
rfemur -5.24074 -2.51626 24.2323
rtibia 31.2046
rfoot -18.8416 -3.6799
rtoes -22.9908
lfemur -34.6953 -4.81965 -23.5775
ltibia 39.622
lfoot -3.07821 -6.45316
ltoes -20.9666
1477
root -0.477958 15.9287 -0.040462 -5.5499 -81.7588 -354.593
lowerback 7.52223 7.69987 7.46927
upperback -4.66901 10.7268 -5.8509
thorax -6.66573 4.77539 -11.694
lowerneck -5.56306 15.321 2.7992
upperneck 18.6121 19.5311 5.83371
head 6.26741 10.0249 2.71918
rclavicle 1.67178e-013 -1.43125e-014
rhumerus -68.0588 7.24937 -88.1043
rradius 123.967
rwrist -51.7366
rhand 43.9159 377.905
rfingers 7.12502
rthumb 65.5508 11.6729
lclavicle 1.67178e-013 -1.43125e-014
lhumerus -49.8449 43.4986 51.3889
lradius 66.1601
lwrist -31.839
lhand -36.5816 15.2258
lfingers 7.12502
lthumb -9.67097 -315.016
rfemur -5.93572 -2.81795 24.9293
rtibia 29.6214
rfoot -19.1622 -4.56466
rtoes -20.9525
lfemur -36.1008 -5.1946 -22.621
ltibia 41.5091
lfoot -7.25461 -5.53159
ltoes -22.4991
1478
root -0.30077 15.8978 -0.0792543 -0.126342 -80.9635 -359.704
lowerback 7.65464 7.71009 7.43909
upperback -4.65545 10.7812 -5.40793
thorax -6.8046 4.80453 -11.2182
lowerneck -5.3516 15.5667 2.46391
upperneck 18.0904 19.9604 5.62171
head 6.04558 10.201 2.67224
rclavicle -3.19049e-014 -3.65764e-014
rhumerus -67.7049 8.45217 -87.7652
rradius 124.394
rwrist -51.8156
rhand 42.2104 378.2
rfingers 7.12502
rthumb 64.2002 9.74583
lclavicle -3.19049e-014 -3.65764e-014
lhumerus -52.1298 44.8975 50.1475
lradius 65.1394
lwrist -33.7921
lhand -35.1528 13.0482
lfingers 7.12502
lthumb -8.29225 -317.135
rfemur -6.63389 -2.97195 25.8753
rtibia 29.0024
rfoot -19.6958 -5.18471
rtoes -8.32291
lfemur -36.9784 -5.35399 -21.3708
ltibia 44.4846
lfoot -12.4483 -3.32781
ltoes -24.7467
1479
root -0.111112 15.8501 -0.122748 5.82523 -79.9362 -365.613
lowerback 8.01169 7.60461 7.52407
upperback -4.5894 10.7268 -4.72595
thorax -7.06748 4.77075 -10.5798
lowerneck -5.13364 15.84 2.10298
upperneck 17.7611 20.4106 5.47676
head 5.87455 10.3912 2.65779
rclavicle -2.14986e-013 1.27222e-014
rhumerus -67.35 9.91553 -87.4292
rradius 124.799
rwrist -51.6641
rhand 41.5758 378.102
rfingers 7.12502
rthumb 63.6879 8.88128
lclavicle -2.14986e-013 1.27222e-014
lhumerus -56.602 49.8804 46.0701
lradius 65.1938
lwrist -39.5631
lhand -31.1905 9.06947
lfingers 7.12502
lthumb -4.46713 -320.998
rfemur -7.40069 -3.40906 27.1904
rtibia 28.7744
rfoot -20.2756 -6.08797
rtoes -9.17484
lfemur -37.3775 -5.10279 -20.0075
ltibia 48.3197
lfoot -17.7749 -0.102211
ltoes -31.5197
1480
root 0.0927425 15.752 -0.179489 11.2799 -78.2471 -371.135
lowerback 8.58063 7.52106 7.83884
upperback -4.61811 10.7398 -4.18501
thorax -7.47491 4.73943 -10.2765
lowerneck -4.8515 15.8486 2.42918
upperneck 17.6065 20.4029 5.42008
head 5.82071 10.4041 2.56964
rclavicle 7.7526e-014 -4.45278e-014
rhumerus -67.1621 10.4811 -87.2181
rradius 125.127
rwrist -51.2222
rhand 42.1232 378.114
rfingers 7.12502
rthumb 64.1301 9.55255
lclavicle 7.7526e-014 -4.45278e-014
lhumerus -53.5157 45.2823 49.4794
lradius 61.3305
lwrist -35.4896
lhand -34.3987 10.624
lfingers 7.12502
lthumb -7.56444 -319.531
rfemur -8.50122 -4.35203 28.8793
rtibia 28.9889
rfoot -20.4067 -7.07079
rtoes -18.65
lfemur -37.9814 -4.8844 -18.3313
ltibia 52.6532
lfoot -20.4392 3.99265
ltoes -32.2273
1481
root 0.287962 15.6965 -0.216159 16.359 -76.7296 -376.526
lowerback 9.20302 7.69588 8.75127
upperback -4.66977 11.1754 -3.87642
thorax -7.69645 4.89235 -10.5879
lowerneck -4.48228 15.608 3.34098
upperneck 17.3545 19.9971 5.36696
head 5.78871 10.2567 2.38017
rclavicle -4.25896e-014 -1.11319e-014
rhumerus -66.9947 10.1768 -87.1951
rradius 125.346
rwrist -50.6282
rhand 42.5371 378.105
rfingers 7.12502
rthumb 64.462 10.0576
lclavicle -4.25896e-014 -1.11319e-014
lhumerus -51.5619 42.904 51.071
lradius 59.435
lwrist -34.4844
lhand -35.33 9.89297
lfingers 7.12502
lthumb -8.46323 -320.297
rfemur -9.28987 -5.54099 30.569
rtibia 29.138
rfoot -20.3845 -7.035
rtoes -12.9486
lfemur -37.7376 -4.51325 -16.3626
ltibia 56.9204
lfoot -21.0555 8.01537
ltoes -29.609
